Info
-----------------------------------------------------------------------
Complete name                    : Avril Lavigne - Wish You Were Here_DivX HD[2011-UJ.rip].avi
Format                           : AVI
Format/Info                      : Audio Video Interleave
File size                        : 72.9 MiB
Duration                         : 3mn 46s
Overall bit rate                 : 2 700 Kbps
Writing application              : Lavf52.39.1
-----------------------------------------------------------------------
Video
ID                               : 0
Format                           : MPEG-4 Visual
Format profile                   : Advanced Simple@L1
Format settings, BVOP            : 2
Format settings, QPel            : No
Format settings, GMC             : No warppoints
Format settings, Matrix          : Default (H.263)
Codec ID                         : divx
Codec ID/Info                    : Mainly used by Google
Codec ID/Hint                    : DivX
Duration                         : 3mn 46s
Bit rate                         : 2 463 Kbps
Width                            : 1 280 pixels
Height                           : 768 pixels
Display aspect ratio             : 16:9
Frame rate                       : 24.000 fps
Color space                      : YUV
Chroma subsampling               : 4:2:0
Bit depth                        : 8 bits
Scan type                        : Progressive
Compression mode                 : Lossy
Bits/(Pixel*Frame)               : 0.104
Stream size                      : 66.5 MiB (91%)
Writing library                  : Lavc52.37.0
-----------------------------------------------------------------------
Audio
ID                               : 1
Format                           : MPEG Audio
Format version                   : Version 1
Format profile                   : Layer 3
Mode                             : Joint stereo
Codec ID                         : 55
Codec ID/Hint                    : MP3
Duration                         : 3mn 46s
Bit rate mode                    : Constant
Bit rate                         : 224 Kbps
Channel(s)                       : 2 channels
Sampling rate                    : 48.0 KHz
Compression mode                 : Lossy
Stream size                      : 6.05 MiB (8%)
Alignment                        : Aligned on interleaves
Interleave, duration             : 24 ms (0.58 video frame)
Writing library                  : LAME3.96.1

-----------------------------------------------------------------------
-----------------------------------------------------------------------

uled by
 
http://thepiratebay.org/user/utpaljoshi123